<svg id="behance-logo" xmlns="http://www.w3.org/2000/svg" width="17.622" height="10.964" viewBox="0 0 17.622 10.964">
  <path id="Behance" d="M15.914,82.8H11.5V81.7h4.416v1.1ZM8.559,87.3A2.9,2.9,0,0,1,8.986,88.9a3.2,3.2,0,0,1-.487,1.75,3.034,3.034,0,0,1-.776.861,3,3,0,0,1-1.237.55,7.65,7.65,0,0,1-1.548.148H0V81.247H5.3a3.366,3.366,0,0,1,2.84,1.168,2.79,2.79,0,0,1,.5,1.674A2.441,2.441,0,0,1,8.13,85.7a2.585,2.585,0,0,1-.835.624A2.434,2.434,0,0,1,8.559,87.3ZM2.529,85.57h2.32A2.2,2.2,0,0,0,6.008,85.3a1.036,1.036,0,0,0,.445-.964.981.981,0,0,0-.589-1.011,4.142,4.142,0,0,0-1.294-.171H2.529Zm4.147,3.176a1.176,1.176,0,0,0-.7-1.175,2.748,2.748,0,0,0-1.1-.186H2.529v2.922H4.846a2.574,2.574,0,0,0,1.11-.192A1.382,1.382,0,0,0,6.676,88.745Zm10.876-1.784a10.314,10.314,0,0,1,.068,1.559H11.9a1.877,1.877,0,0,0,.821,1.657,2.067,2.067,0,0,0,1.132.295,1.595,1.595,0,0,0,1.561-.9h2.1a2.553,2.553,0,0,1-.761,1.419A3.815,3.815,0,0,1,13.8,92.14a4.287,4.287,0,0,1-2.767-.967,3.817,3.817,0,0,1-1.2-3.146A4.253,4.253,0,0,1,10.913,84.9a3.788,3.788,0,0,1,2.81-1.089,4.478,4.478,0,0,1,1.847.367,3.181,3.181,0,0,1,1.356,1.163A3.877,3.877,0,0,1,17.552,86.962Zm-2.063.2a1.715,1.715,0,0,0-.549-1.241,1.79,1.79,0,0,0-1.217-.425,1.628,1.628,0,0,0-1.225.45,2.117,2.117,0,0,0-.547,1.216h3.538Z" transform="translate(0 -81.247)" fill="#132c4a"/>
</svg>
