<svg xmlns="http://www.w3.org/2000/svg" width="13.164" height="13.164" viewBox="0 0 13.164 13.164">
  <path id="dribbble-logo" d="M6.582,0a6.582,6.582,0,1,0,6.582,6.582A6.589,6.589,0,0,0,6.582,0Zm4.289,3.1A5.5,5.5,0,0,1,12.1,6.414a9.291,9.291,0,0,0-3.7-.036c-.2-.463-.4-.9-.61-1.322A10.9,10.9,0,0,0,10.871,3.105Zm-.741-.754A9.814,9.814,0,0,1,7.3,4.117,25.362,25.362,0,0,0,5.43,1.179a5.511,5.511,0,0,1,4.7,1.172ZM4.363,1.525A24.191,24.191,0,0,1,6.288,4.493a17.665,17.665,0,0,1-5.079.8A5.546,5.546,0,0,1,4.363,1.525Zm-3.3,4.832h.031a19.112,19.112,0,0,0,3.35-.309,16.281,16.281,0,0,0,2.345-.6c.191.382.382.784.566,1.206A9.958,9.958,0,0,0,4.77,7.93a11.643,11.643,0,0,0-2.4,2.22A5.5,5.5,0,0,1,1.057,6.583C1.057,6.507,1.059,6.432,1.063,6.356Zm2.067,4.535A10.627,10.627,0,0,1,5.4,8.779,8.861,8.861,0,0,1,7.756,7.621a20.56,20.56,0,0,1,1.11,3.99,5.507,5.507,0,0,1-5.736-.72Zm6.709.151A21.906,21.906,0,0,0,8.8,7.371a8.327,8.327,0,0,1,3.234.109A5.531,5.531,0,0,1,9.838,11.043Z" transform="translate(0 -0.001)" fill="#132c4a"/>
</svg>
