<svg id="instagram_1_" data-name="instagram (1)" xmlns="http://www.w3.org/2000/svg" width="13.11" height="13.11" viewBox="0 0 13.11 13.11">
  <g id="Group_11" data-name="Group 11">
    <g id="Group_10" data-name="Group 10">
      <path id="Path_29" data-name="Path 29" d="M9.3,0H3.808A3.813,3.813,0,0,0,0,3.808V9.3A3.813,3.813,0,0,0,3.808,13.11H9.3A3.813,3.813,0,0,0,13.11,9.3V3.808A3.813,3.813,0,0,0,9.3,0Zm2.784,9.3A2.787,2.787,0,0,1,9.3,12.086H3.808A2.787,2.787,0,0,1,1.024,9.3V3.808A2.787,2.787,0,0,1,3.808,1.024H9.3a2.787,2.787,0,0,1,2.784,2.784Z" fill="#132c4a"/>
    </g>
  </g>
  <g id="Group_13" data-name="Group 13" transform="translate(3.022 3.022)">
    <g id="Group_12" data-name="Group 12">
      <path id="Path_30" data-name="Path 30" d="M121.534,118a3.534,3.534,0,1,0,3.534,3.534A3.538,3.538,0,0,0,121.534,118Zm0,6.043a2.509,2.509,0,1,1,2.509-2.509A2.512,2.512,0,0,1,121.534,124.043Z" transform="translate(-118 -118)" fill="#132c4a"/>
    </g>
  </g>
  <g id="Group_15" data-name="Group 15" transform="translate(9.628 2.458)">
    <g id="Group_14" data-name="Group 14">
      <ellipse id="Ellipse_4" data-name="Ellipse 4" cx="0.512" cy="0.512" rx="0.512" ry="0.512" fill="#132c4a"/>
    </g>
  </g>
</svg>
