<svg id="linkedin-logo_1_" data-name="linkedin-logo (1)" xmlns="http://www.w3.org/2000/svg" width="12.367" height="12.345" viewBox="0 0 12.367 12.345">
  <g id="Group_37" data-name="Group 37" transform="translate(0 0)">
    <path id="Path_67" data-name="Path 67" d="M1.486.08A1.486,1.486,0,1,0,2.972,1.566,1.486,1.486,0,0,0,1.486.08Z" transform="translate(0 -0.08)" fill="#132c4a"/>
    <rect id="Rectangle_100" data-name="Rectangle 100" width="2.563" height="8.246" transform="translate(0.204 4.099)" fill="#132c4a"/>
    <path id="Path_68" data-name="Path 68" d="M37.838,29.383a2.693,2.693,0,0,0-2.425,1.332h-.034V29.588H32.92v8.246h2.561V33.755c0-1.075.2-2.117,1.538-2.117,1.314,0,1.332,1.23,1.332,2.186v4.01h2.561V33.311C40.912,31.091,40.433,29.383,37.838,29.383Z" transform="translate(-28.545 -25.489)" fill="#132c4a"/>
  </g>
</svg>
