<svg xmlns="http://www.w3.org/2000/svg" width="36.936" height="26.259" viewBox="0 0 36.936 26.259">
  <g id="Group_37668" data-name="Group 37668" transform="translate(-571 -6568)">
    <path id="Path_79" data-name="Path 79" d="M33.959,30.741H2.978A2.981,2.981,0,0,1,0,27.763V7.46A2.981,2.981,0,0,1,2.978,4.482H33.959A2.981,2.981,0,0,1,36.936,7.46v20.3A2.981,2.981,0,0,1,33.959,30.741ZM2.978,5.673A1.789,1.789,0,0,0,1.191,7.46v20.3A1.789,1.789,0,0,0,2.978,29.55H33.959a1.789,1.789,0,0,0,1.787-1.787V7.46a1.789,1.789,0,0,0-1.787-1.787Z" transform="translate(571 6563.518)" fill="#132c4a"/>
    <path id="Path_80" data-name="Path 80" d="M18.342,20.452a3.331,3.331,0,0,1-2.187-.788L.863,6.322a.6.6,0,1,1,.783-.9l15.293,13.34a2.229,2.229,0,0,0,2.807,0L35.019,5.446a.6.6,0,0,1,.784.9L20.529,19.662A3.328,3.328,0,0,1,18.342,20.452Z" transform="translate(571.126 6563.67)" fill="#132c4a"/>
  </g>
</svg>
