<svg xmlns="http://www.w3.org/2000/svg" width="13.11" height="10.836" viewBox="0 0 13.11 10.836">
  <path id="Path_33" data-name="Path 33" d="M5.815,10.732Q4.028,6.749,2.237,2.766c-.016.005-.032.005-.048.011-.005.064-.021.129-.021.193C2.162,4.59,2.156,6.2,2.146,7.825a1.923,1.923,0,0,0,.429,1.261c.392.494.762,1.008,1.164,1.54H0c.075-.113.134-.209.2-.3.343-.456.681-.917,1.03-1.368a1.64,1.64,0,0,0,.349-1.019c0-1.931-.005-3.862-.005-5.793a1.67,1.67,0,0,0-.338-1C.944.75.649.358.338-.06.477-.071.6-.082.708-.082c.939-.005,1.877,0,2.816-.016A.542.542,0,0,1,4.1.277c.89,1.985,1.792,3.964,2.687,5.943.038.086.086.172.156.311.139-.333.257-.612.37-.9C8.025,3.85,8.738,2.074,9.436.288A.532.532,0,0,1,10.015-.1c.9.016,1.786.011,2.682.016.123,0,.241.016.413.027-.257.29-.472.547-.7.794a1.511,1.511,0,0,0-.434,1.132c.016,2.376.011,4.753,0,7.134a1,1,0,0,0,.365.869c.252.209.494.434.74.649a.979.979,0,0,1-.07.086H8.218c.241-.268.456-.52.687-.756A1.107,1.107,0,0,0,9.232,9C9.2,6.908,9.2,4.8,9.183,2.7a.165.165,0,0,0-.054-.129c-.182.451-.359.9-.542,1.352Q7.26,7.248,5.927,10.577c-.021.048-.043.1-.07.145C5.852,10.732,5.831,10.732,5.815,10.732Z" transform="translate(0 0.104)" fill="#132c4a"/>
</svg>
