<svg id="twitter" xmlns="http://www.w3.org/2000/svg" width="14.004" height="11.466" viewBox="0 0 14.004 11.466">
  <path id="XMLID_827_" d="M13.685,29.42a5.309,5.309,0,0,1-.677.247,2.994,2.994,0,0,0,.61-1.072.226.226,0,0,0-.33-.263,5.33,5.33,0,0,1-1.576.623A3.008,3.008,0,0,0,6.6,31.1a3.067,3.067,0,0,0,.025.388,7.7,7.7,0,0,1-5.283-2.8.226.226,0,0,0-.37.029,3.011,3.011,0,0,0,.308,3.46,2.547,2.547,0,0,1-.4-.18.226.226,0,0,0-.336.192c0,.013,0,.027,0,.04a3.017,3.017,0,0,0,1.472,2.585c-.076-.008-.153-.019-.229-.033a.226.226,0,0,0-.257.291,3.005,3.005,0,0,0,2.2,2.015A5.319,5.319,0,0,1,.887,37.9a5.44,5.44,0,0,1-.637-.037.226.226,0,0,0-.148.414,8.108,8.108,0,0,0,4.384,1.285,7.8,7.8,0,0,0,6.043-2.654,8.413,8.413,0,0,0,2.094-5.483c0-.082,0-.166,0-.249a5.844,5.844,0,0,0,1.345-1.425.226.226,0,0,0-.279-.332Z" transform="translate(0.002 -28.097)" fill="#132c4a"/>
</svg>
