<svg xmlns="http://www.w3.org/2000/svg" width="37.095" height="35.528" viewBox="0 0 37.095 35.528">
  <path id="Vector" d="M14.378,24.909a.84.84,0,0,1-.421-.113,50.309,50.309,0,0,1-6.915-4.984,28.551,28.551,0,0,1-4.8-5.148A10.868,10.868,0,0,1,0,8.488,8.925,8.925,0,0,1,2.271,2.516,7.439,7.439,0,0,1,7.813,0a7.688,7.688,0,0,1,6.565,3.9A7.688,7.688,0,0,1,20.943,0a7.481,7.481,0,0,1,5.328,2.27A8.8,8.8,0,0,1,28.756,8.5a11.079,11.079,0,0,1-2.287,6.167,28.92,28.92,0,0,1-4.79,5.146A50.483,50.483,0,0,1,14.8,24.795.842.842,0,0,1,14.378,24.909Z" transform="matrix(0.882, -0.471, 0.471, 0.882, 0, 13.556)" fill="#fff" opacity="0.627"/>
</svg>
