<svg xmlns="http://www.w3.org/2000/svg" width="91.996" height="88.108" viewBox="0 0 91.996 88.108">
  <path id="Vector" d="M35.658,61.774a2.084,2.084,0,0,1-1.045-.28A124.766,124.766,0,0,1,17.464,49.134,70.807,70.807,0,0,1,5.569,36.368C1.844,31.01-.03,25.857,0,21.05A22.133,22.133,0,0,1,5.632,6.241,18.449,18.449,0,0,1,19.376,0,19.067,19.067,0,0,1,35.658,9.672,19.067,19.067,0,0,1,51.939,0,18.553,18.553,0,0,1,65.152,5.631a21.818,21.818,0,0,1,6.163,15.446c-.03,4.8-1.939,9.944-5.673,15.294A71.723,71.723,0,0,1,53.764,49.132,125.2,125.2,0,0,1,36.708,61.49,2.088,2.088,0,0,1,35.658,61.774Z" transform="matrix(0.882, -0.471, 0.471, 0.882, 0, 33.618)" fill="#fff" opacity="0.627"/>
</svg>
