<svg xmlns="http://www.w3.org/2000/svg" width="43.132" height="38.058" viewBox="0 0 43.132 38.058">
  <path id="Path_201125" data-name="Path 201125" d="M150.057,70H117.074A5.075,5.075,0,0,0,112,75.073v17.76a5.075,5.075,0,0,0,5.074,5.074h2.537v8.88a1.27,1.27,0,0,0,2.167.9L132.3,97.907h17.76a5.076,5.076,0,0,0,5.074-5.075V75.072A5.075,5.075,0,0,0,150.058,70ZM120.88,77.61h20.3a1.269,1.269,0,0,1,0,2.537h-20.3a1.269,1.269,0,0,1,0-2.537ZM131.029,90.3H120.88a1.269,1.269,0,0,1,0-2.537h10.149a1.269,1.269,0,1,1,0,2.537Zm15.223-5.074H120.88a1.269,1.269,0,0,1,0-2.537h25.371a1.269,1.269,0,1,1,0,2.537Z" transform="translate(-112 -69.998)" fill="#132c4a"/>
</svg>
