<svg xmlns="http://www.w3.org/2000/svg" width="54.539" height="34.294" viewBox="0 0 54.539 34.294">
  <g id="Group_37677" data-name="Group 37677" transform="translate(-436.25 -3784)">
    <path id="Path_201116" data-name="Path 201116" d="M10.386,77.606a3.811,3.811,0,0,0-2.34-1.846,27.029,27.029,0,0,0-6.914-.881H.774a.785.785,0,0,0-.778.8V94.927a.79.79,0,0,0,.79.79H3.251a3.863,3.863,0,0,0,3.715-2.756L10.7,80.622a3.887,3.887,0,0,0-.318-3.017Z" transform="translate(436.254 3709.121)" fill="#132c4a"/>
    <path id="Path_201117" data-name="Path 201117" d="M259.609,111.023a4.957,4.957,0,0,1-.307-1.7.953.953,0,0,1-.125,0l-11.612-4.641a3.369,3.369,0,0,0-2.108-.142c-1.863.488-5.448,2.051-8.522,7.073,0,.034-1.613,2.665-.1,4.039.057.045,1.415,1.176,4.05-.506.392-.409,2.8-2.812,5.641-3.074h0a.567.567,0,0,1,.432.148l13.959,12.777a2.365,2.365,0,0,1,.159.176,4.693,4.693,0,0,0,2.931-2.2Z" transform="translate(218.465 3681.873)" fill="#132c4a"/>
    <path id="Path_201118" data-name="Path 201118" d="M124.876,143.467a9.647,9.647,0,0,0-4.715,2.738.572.572,0,0,1-.108.091c-3.454,2.244-5.408.5-5.494.426-2.21-2.005-.182-5.329-.1-5.471a20.457,20.457,0,0,1,3.181-4.028h-9.368a4.947,4.947,0,0,1-.2,1.216l-3.659,12.107a.351.351,0,0,1,.1.079,118.639,118.639,0,0,0,17.9,15.725,1.632,1.632,0,0,0,2.125-2.465l-4.545-4.545a.568.568,0,0,1,.8-.807l2.409,2.409,2.125,2.1,1.062,1.1a2.005,2.005,0,0,0,2.841-2.806l-4.96-5.113a.568.568,0,1,1,.807-.8l.841.807,4.17,4.312,1.136,1.136a2.077,2.077,0,1,0,2.937-2.937l-2.392-2.318L128,152.767h0a.568.568,0,0,1,.79-.812l2.448,2.369,1.324,1.284,3.409,3.306a1.966,1.966,0,1,0,2.7-2.841Z" transform="translate(339.972 3651.634)" fill="#132c4a"/>
    <path id="Path_201119" data-name="Path 201119" d="M558.5,107.832h-.676a32.448,32.448,0,0,0-7.545.841,3.756,3.756,0,0,0-2.443,1.915,3.891,3.891,0,0,0-.216,3.2l4.545,12.356h0a3.9,3.9,0,0,0,3.641,2.539h2.664a.79.79,0,0,0,.8-.807V108.621a.784.784,0,0,0-.767-.789Z" transform="translate(-68.475 3678.736)" fill="#132c4a"/>
  </g>
</svg>
