<svg xmlns="http://www.w3.org/2000/svg" width="38.008" height="48.371" viewBox="0 0 38.008 48.371">
  <g id="noun-privacy-2545932" transform="translate(-157.502 -35.009)">
    <path id="Path_201120" data-name="Path 201120" d="M321.911,169.725a3.455,3.455,0,1,1-3.455-3.455,3.456,3.456,0,0,1,3.455,3.455" transform="translate(-141.949 -118.303)" fill="#132c4a"/>
    <path id="Path_201121" data-name="Path 201121" d="M194.353,41.153l-17.276-6.047a1.718,1.718,0,0,0-1.141,0l-17.276,6.047a1.728,1.728,0,0,0-1.157,1.631V62.1a16.649,16.649,0,0,0,4.174,10.544,33.139,33.139,0,0,0,3.916,3.956,87.068,87.068,0,0,0,9.823,6.417l.19.114a1.726,1.726,0,0,0,.9.251,1.75,1.75,0,0,0,.9-.251l.19-.114A87.242,87.242,0,0,0,187.42,76.6a33.1,33.1,0,0,0,3.918-3.96,16.622,16.622,0,0,0,4.173-10.524V42.783a1.728,1.728,0,0,0-1.157-1.631Zm-17.847,5.086a5.183,5.183,0,1,1-5.183,5.183A5.189,5.189,0,0,1,176.506,46.239ZM185.144,68.7H167.868a.863.863,0,0,1-.864-.864,9.5,9.5,0,0,1,19,0A.863.863,0,0,1,185.144,68.7Z" fill="#132c4a"/>
    <path id="Path_201122" data-name="Path 201122" d="M279.454,288.77a7.786,7.786,0,0,0-7.727,6.911h15.454a7.786,7.786,0,0,0-7.727-6.911Z" transform="translate(-102.948 -228.709)" fill="#132c4a"/>
  </g>
</svg>
