<svg xmlns="http://www.w3.org/2000/svg" width="49.579" height="47.516" viewBox="0 0 49.579 47.516">
  <path id="Path_201123" data-name="Path 201123" d="M189.232,141.44a18.019,18.019,0,0,1,2.374-8.5c1.762-3.064,3.753-4.366,5.285-6.587a15.148,15.148,0,0,0,1.455-13.4,10.608,10.608,0,0,0-19.839.536c-1.685,4.672-.919,10.187,2.757,13.711,1.532,1.455,2.987,3.753,2.145,5.9-.689,2.068-3.217,2.987-4.979,3.83-4.06,1.762-8.885,4.213-9.728,8.962a6.43,6.43,0,0,0,6.128,7.966h17.541a1.057,1.057,0,0,0,.843-1.685,16.31,16.31,0,0,1-3.983-10.723Zm25.277-8.732a12.3,12.3,0,0,0-17.541,0,12.4,12.4,0,1,0,17.541,0ZM199.8,135.542a8.143,8.143,0,0,1,10.111-1.226l-11.337,11.336A8.27,8.27,0,0,1,199.8,135.542Zm11.8,11.8a8.732,8.732,0,0,1-10.111,1.378l11.336-11.336A8.265,8.265,0,0,1,211.6,147.338Z" transform="translate(-168.549 -106.352)" fill="#132c4a"/>
</svg>
